<svg width="40" height="40" viewBox="0 0 40 40" fill="none" xmlns="http://www.w3.org/2000/svg">
<g clip-path="url(#clip0_733_497)">
<path d="M1.42857 17.1429C1.42857 21.3106 3.08418 25.3076 6.03118 28.2546C8.97818 31.2016 12.9752 32.8572 17.1429 32.8572C21.3105 32.8572 25.3075 31.2016 28.2545 28.2546C31.2015 25.3076 32.8571 21.3106 32.8571 17.1429C32.8571 12.9752 31.2015 8.9782 28.2545 6.0312C25.3075 3.0842 21.3105 1.42859 17.1429 1.42859C12.9752 1.42859 8.97818 3.0842 6.03118 6.0312C3.08418 8.9782 1.42857 12.9752 1.42857 17.1429Z" fill="#E5E0FE"/>
<path d="M1.42857 17.1429C1.42857 21.3106 3.08418 25.3076 6.03118 28.2546C8.97818 31.2016 12.9752 32.8572 17.1429 32.8572C21.3105 32.8572 25.3075 31.2016 28.2545 28.2546C31.2015 25.3076 32.8571 21.3106 32.8571 17.1429C32.8571 12.9752 31.2015 8.9782 28.2545 6.0312C25.3075 3.0842 21.3105 1.42859 17.1429 1.42859C12.9752 1.42859 8.97818 3.0842 6.03118 6.0312C3.08418 8.9782 1.42857 12.9752 1.42857 17.1429Z" stroke="#7B63FA" stroke-width="3" stroke-linecap="round" stroke-linejoin="round"/>
<path d="M28.5571 28.5571L37.1429 37.1428" stroke="#7B63FA" stroke-width="3" stroke-linecap="round" stroke-linejoin="round"/>
<path d="M7.18857 17.5886H11.56L14.5086 11.9657L18.9743 22.3228L22.8114 17.5886H27.0971" stroke="#7B63FA" stroke-width="3" stroke-linecap="round" stroke-linejoin="round"/>
</g>
<defs>
<clipPath id="clip0_733_497">
<rect width="40" height="40" fill="white"/>
</clipPath>
</defs>
</svg>
