<svg width="895" height="954" viewBox="0 0 895 954" fill="none" xmlns="http://www.w3.org/2000/svg">
<path d="M87.2781 176.992C38.4056 176.317 -0.666275 136.151 0.00868225 87.2781C0.68364 38.4056 40.8498 -0.66626 89.7224 0.00866699L88.5002 88.5002L87.2781 176.992ZM808.5 930.5C722.816 952.648 722.83 952.702 722.844 952.756C722.849 952.772 722.862 952.825 722.871 952.857C722.888 952.923 722.904 952.984 722.919 953.041C722.949 953.154 722.975 953.251 722.996 953.331C723.039 953.49 723.065 953.583 723.073 953.611C723.089 953.667 723.034 953.469 722.902 953.038C722.636 952.172 722.069 950.395 721.153 947.876C719.307 942.799 716.137 934.957 711.317 925.62C701.517 906.637 686.007 883.609 662.904 864.382C623.114 831.269 539.81 791.848 365.806 858.663L334.082 776.044L302.358 693.426C523.618 608.466 677.523 646.273 776.126 728.331C822.22 766.691 851.202 810.734 868.596 844.426C877.372 861.427 883.474 876.323 887.501 887.401C889.522 892.959 891.041 897.613 892.128 901.158C892.672 902.933 893.11 904.436 893.449 905.642C893.619 906.245 893.764 906.774 893.886 907.227C893.948 907.453 894.003 907.661 894.052 907.848C894.077 907.942 894.1 908.031 894.122 908.115C894.133 908.157 894.149 908.217 894.154 908.238C894.169 908.296 894.184 908.353 808.5 930.5ZM334.082 776.044L365.806 858.663C260.468 899.111 159.716 910.209 85.9584 862.12C3.59007 808.418 -1.01576 713.911 17.9141 646.827C55.3058 514.318 209.193 369.721 415.356 410.917L398.014 497.702L380.672 584.486C280.873 564.543 205.162 635.005 188.262 694.896C180.046 724.012 192.121 720.04 182.628 713.85C181.745 713.275 210.064 728.865 302.358 693.426L334.082 776.044ZM398.014 497.702L415.356 410.917C472.344 422.305 491.092 405.743 494.345 402.064C497.837 398.115 506.552 383.199 494.061 351.415C469.549 289.043 359.153 180.747 87.2781 176.992L88.5002 88.5002L89.7224 0.00866699C400.342 4.29852 597.684 131.172 658.796 286.675C689.117 363.827 685.115 453.524 626.941 519.312C568.53 585.369 476.664 603.667 380.672 584.486L398.014 497.702Z" fill="#966CF9"/>
</svg>
