<svg width="40" height="40" viewBox="0 0 40 40" fill="none" xmlns="http://www.w3.org/2000/svg">
<path d="M7.83554 12.1883L1.5658 8.81408L1.56584 22.4653L16.8429 32.8796C18.8177 34.2256 21.4217 34.2008 23.3703 32.8168L38.2922 22.3984V7.52014L30.5611 11.699L24.7518 11.0775C22.6185 10.8492 20.4844 11.4297 18.7661 12.6919C18.7257 12.6919 18.6867 12.6771 18.656 12.6509C17.2151 11.4214 15.3006 10.8959 13.432 11.2194L7.83554 12.1883Z" fill="#AC6CFF" fill-opacity="0.2"/>
<path d="M1.5658 8.81396L7.83553 12.1882L13.432 11.2193C15.3212 10.8921 17.2573 11.4329 18.7035 12.6917" stroke="#AC6CFF" stroke-width="3" stroke-linecap="round" stroke-linejoin="round"/>
<path d="M32.2348 26.5213L23.3702 32.8168C21.4217 34.2008 18.8177 34.2257 16.8429 32.8794L1.5658 22.4653" stroke="#AC6CFF" stroke-width="3" stroke-linecap="round" stroke-linejoin="round"/>
<path d="M38.2923 22.3984L32.02 26.6844L22.2881 18.8264L18.7084 21.4318C17.2528 22.4912 15.2194 22.2057 14.1117 20.7865C13.0066 19.3706 13.2198 17.3341 14.5942 16.1777L18.3216 13.0415C20.1081 11.5384 22.4304 10.8291 24.7519 11.0775L30.5612 11.699L38.2923 7.52014" stroke="#AC6CFF" stroke-width="3" stroke-linecap="round" stroke-linejoin="round"/>
<path d="M22.2893 18.8476C24.631 20.934 27.952 19.8696 29.1868 18.1665" stroke="#AC6CFF" stroke-width="3" stroke-linecap="round" stroke-linejoin="round"/>
</svg>
