<svg width="20" height="20" viewBox="0 0 20 20" fill="none" xmlns="http://www.w3.org/2000/svg">
<g clip-path="url(#clip0_812_3881)">
<path d="M7.67532 17.9364C6.85995 18.4624 5.88833 18.6916 4.92383 18.5856C3.95933 18.4795 3.06077 18.0446 2.37925 17.3538L1.78344 16.7712C1.52223 16.504 1.37598 16.1453 1.37598 15.7716C1.37598 15.398 1.52223 15.0391 1.78344 14.772L4.31231 12.2696C4.57726 12.0092 4.93386 11.8633 5.30533 11.8633C5.67679 11.8633 6.03341 12.0092 6.29834 12.2696C6.56551 12.5308 6.92433 12.6771 7.29798 12.6771C7.67163 12.6771 8.03043 12.5308 8.29761 12.2696L12.2697 8.29755C12.4022 8.16697 12.5074 8.01135 12.5792 7.83974C12.651 7.66813 12.688 7.48395 12.688 7.29792C12.688 7.11188 12.651 6.92771 12.5792 6.75609C12.5074 6.58448 12.4022 6.42886 12.2697 6.29828C12.0093 6.03335 11.8634 5.67673 11.8634 5.30527C11.8634 4.9338 12.0093 4.5772 12.2697 4.31225L14.7853 1.79662C15.0525 1.53541 15.4112 1.38916 15.7849 1.38916C16.1586 1.38916 16.5174 1.53541 16.7846 1.79662L17.3672 2.39244C18.0578 3.07395 18.4927 3.97252 18.5988 4.93701C18.705 5.90152 18.4757 6.87314 17.9497 7.6885C15.2089 11.7277 11.7216 15.206 7.67532 17.9364Z" stroke="#525252" stroke-width="1.71" stroke-linecap="round" stroke-linejoin="round"/>
</g>
<defs>
<clipPath id="clip0_812_3881">
<rect width="20" height="20" fill="white"/>
</clipPath>
</defs>
</svg>
