<svg width="40" height="40" viewBox="0 0 40 40" fill="none" xmlns="http://www.w3.org/2000/svg">
<g clip-path="url(#clip0_733_488)">
<path d="M36.1486 1.42859H8.89142V25.6457H36.1486C37.4886 25.6457 38.5743 24.56 38.5743 23.22V3.85716C38.5747 3.53837 38.5122 3.22263 38.3905 2.928C38.2687 2.63337 38.0901 2.36563 37.8648 2.14007C37.6395 1.91452 37.372 1.73559 37.0775 1.61351C36.783 1.49143 36.4674 1.42859 36.1486 1.42859Z" fill="white"/>
<path d="M18.1429 1.42859H36.1486C37.4886 1.42859 38.5743 2.5143 38.5743 3.8543V23.22C38.5743 24.5629 37.4886 25.6486 36.1486 25.6486H21.4286" stroke="#F6B91E" stroke-width="3" stroke-linecap="round" stroke-linejoin="round"/>
<path d="M8.99716 11.4314C10.3236 11.4314 11.5958 10.9045 12.5337 9.96656C13.4716 9.02861 13.9986 7.75648 13.9986 6.43002C13.9986 5.10356 13.4716 3.83142 12.5337 2.89347C11.5958 1.95552 10.3236 1.42859 8.99716 1.42859C7.67069 1.42859 6.39856 1.95552 5.46061 2.89347C4.52266 3.83142 3.99573 5.10356 3.99573 6.43002C3.99573 7.75648 4.52266 9.02861 5.46061 9.96656C6.39856 10.9045 7.67069 11.4314 8.99716 11.4314Z" fill="#FDF1D2"/>
<path d="M25.7143 15.7915C25.7143 14.1715 24.4 12.8572 22.78 12.8572H8.99716C6.98985 12.8572 5.06475 13.6546 3.64537 15.074C2.22599 16.4933 1.42859 18.4184 1.42859 20.4257V27.1429H4.67145L5.7543 38.5715H12.24L14.7314 18.7286H22.78C24.4 18.7286 25.7143 17.4143 25.7143 15.7915Z" fill="#FDF1D2"/>
<path d="M8.99716 11.4314C10.3236 11.4314 11.5958 10.9045 12.5337 9.96656C13.4716 9.02861 13.9986 7.75648 13.9986 6.43002C13.9986 5.10356 13.4716 3.83142 12.5337 2.89347C11.5958 1.95552 10.3236 1.42859 8.99716 1.42859C7.67069 1.42859 6.39856 1.95552 5.46061 2.89347C4.52266 3.83142 3.99573 5.10356 3.99573 6.43002C3.99573 7.75648 4.52266 9.02861 5.46061 9.96656C6.39856 10.9045 7.67069 11.4314 8.99716 11.4314Z" stroke="#F6B91E" stroke-width="3" stroke-linecap="round" stroke-linejoin="round"/>
<path d="M25.7143 15.7915C25.7143 14.1715 24.4 12.8572 22.78 12.8572H8.99716C6.98985 12.8572 5.06475 13.6546 3.64537 15.074C2.22599 16.4933 1.42859 18.4184 1.42859 20.4257V27.1429H4.67145L5.7543 38.5715H12.24L14.7314 18.7286H22.78C24.4 18.7286 25.7143 17.4143 25.7143 15.7915Z" stroke="#F6B91E" stroke-width="3" stroke-linecap="round" stroke-linejoin="round"/>
</g>
<defs>
<clipPath id="clip0_733_488">
<rect width="40" height="40" fill="white"/>
</clipPath>
</defs>
</svg>
