<svg width="40" height="40" viewBox="0 0 40 40" fill="none" xmlns="http://www.w3.org/2000/svg">
<g clip-path="url(#clip0_518_407)">
<path d="M20 22.5C15.1544 22.5 10.9901 27.0038 9.16669 35.8333L20 37.9167L30.8334 35.8333C29.0099 27.0038 24.8456 22.5 20 22.5Z" fill="#4008C3" fill-opacity="0.2"/>
<path d="M5.82739 38.424V31.338H12.9135" stroke="#4008C3" stroke-width="3" stroke-linecap="round" stroke-linejoin="round"/>
<path d="M38.1112 16.6144C39.8743 25.9906 34.1366 35.286 24.7686 37.7963C17.5987 39.7174 10.283 37.1331 5.82739 31.7789" stroke="#4008C3" stroke-width="3" stroke-linecap="round" stroke-linejoin="round"/>
<path d="M1.88901 23.3856C0.125859 14.0094 5.86371 4.71392 15.2317 2.20376C22.4011 0.282722 29.7163 2.86654 34.172 8.22006" stroke="#4008C3" stroke-width="3" stroke-linecap="round" stroke-linejoin="round"/>
<path d="M34.172 1.57605V8.6622H27.0859" stroke="#4008C3" stroke-width="3" stroke-linecap="round" stroke-linejoin="round"/>
<path d="M16.4286 15C16.4286 15.9472 16.8049 16.8556 17.4746 17.5254C18.1444 18.1952 19.0528 18.5714 20 18.5714C20.9472 18.5714 21.8556 18.1952 22.5254 17.5254C23.1952 16.8556 23.5714 15.9472 23.5714 15C23.5714 14.0528 23.1952 13.1444 22.5254 12.4746C21.8556 11.8049 20.9472 11.4286 20 11.4286C19.0528 11.4286 18.1444 11.8049 17.4746 12.4746C16.8049 13.1444 16.4286 14.0528 16.4286 15Z" fill="#4008C3" fill-opacity="0.2"/>
<path d="M16.4286 15C16.4286 15.9472 16.8049 16.8556 17.4746 17.5254C18.1444 18.1952 19.0528 18.5714 20 18.5714C20.9472 18.5714 21.8556 18.1952 22.5254 17.5254C23.1952 16.8556 23.5714 15.9472 23.5714 15C23.5714 14.0528 23.1952 13.1444 22.5254 12.4746C21.8556 11.8049 20.9472 11.4286 20 11.4286C19.0528 11.4286 18.1444 11.8049 17.4746 12.4746C16.8049 13.1444 16.4286 14.0528 16.4286 15Z" stroke="#4008C3" stroke-width="3"/>
<path d="M13.4512 27.1429C14.5534 24.6202 17.0706 22.8572 19.9997 22.8572C22.9287 22.8572 25.4459 24.6202 26.5482 27.1429" stroke="#4008C3" stroke-width="3" stroke-linecap="round"/>
</g>
<defs>
<clipPath id="clip0_518_407">
<rect width="40" height="40" fill="white"/>
</clipPath>
</defs>
</svg>
